<svg id="Layer_3" enable-background="new 0 0 64 64" height="512" viewBox="0 0 64 64" width="512" xmlns="http://www.w3.org/2000/svg"><path d="m36 6v4h-34v-4c0-2.21 1.79-4 4-4h26c2.21 0 4 1.79 4 4z" fill="#969faa"/><path d="m36 54v4c0 2.21-1.79 4-4 4h-26c-2.21 0-4-1.79-4-4v-4z" fill="#969faa"/><path d="m2 10h34v44h-34z" fill="#69d6f4"/><path d="m6 14h26v36h-26z" fill="#e6e9ed"/><path d="m10 18h18v12h-18z" fill="#b4dd7f"/><path d="m56 12.27c0 .48-.15.94-.42 1.32l-4.58 6.41h-10l-4.58-6.41c-.27-.38-.42-.84-.42-1.32 0-1.25 1.02-2.27 2.27-2.27h.73c1.75 0 1.75 2 3.5 2s1.75-2 3.49-2c1.76 0 1.76 2 3.51 2s1.75-2 3.5-2h.73c.63 0 1.19.26 1.6.67s.67.97.67 1.6z" fill="#d3a06c"/><path d="m54 20c1.1 0 2 .9 2 2 0 .55-.22 1.05-.59 1.41-.36.37-.86.59-1.41.59h-.29-15.42-.29c-1.1 0-2-.9-2-2 0-.55.22-1.05.59-1.41.36-.37.86-.59 1.41-.59h3 10z" fill="#fcd770"/><path d="m32 30.27c1.46-2.64 3.65-4.81 6.29-6.27h15.42c4.94 2.72 8.29 7.96 8.29 14 0 8.84-7.16 16-16 16-3.78 0-7.26-1.31-10-3.51-1.62-1.3-2.99-2.91-4-4.74-1.28-2.3-2-4.94-2-7.75s.73-5.44 2-7.73z" fill="#cf9e76"/><path d="m23 5h2v2h-2z"/><path d="m13 5h8v2h-8z"/><path d="m15 57h8v2h-8z"/><path d="m29 57h2v2h-2z"/><path d="m7 57h2v2h-2z"/><path d="m46 35c1.103 0 2 .897 2 2h2c0-1.859-1.28-3.411-3-3.858v-2.142h-2v2h-3v4c0 2.206 1.794 4 4 4 1.103 0 2 .897 2 2v2h-2c-1.103 0-2-.897-2-2h-2c0 1.859 1.28 3.411 3 3.858v2.142h2v-2h3v-4c0-2.206-1.794-4-4-4-1.103 0-2-.897-2-2v-2z"/><path d="m55.962 24.251c.631-.55 1.038-1.35 1.038-2.251 0-1.654-1.346-3-3-3h-1.057l3.447-4.826c.399-.559.61-1.217.61-1.903 0-1.803-1.468-3.271-3.272-3.271h-.728c-1.329 0-2.036.807-2.504 1.341-.436.498-.609.659-.999.659s-.563-.161-.999-.659c-.468-.534-1.175-1.341-2.504-1.341s-2.035.808-2.502 1.342c-.434.497-.608.658-.995.658s-.561-.161-.996-.658c-.467-.534-1.173-1.342-2.501-1.342h-.728c-.451 0-.881.092-1.272.257v-3.257c0-2.757-2.243-5-5-5h-26c-2.757 0-5 2.243-5 5v52c0 2.757 2.243 5 5 5h26c2.757 0 5-2.243 5-5v-5.604c2.614 1.64 5.693 2.604 9 2.604 9.374 0 17-7.626 17-17 0-5.477-2.654-10.574-7.038-13.749zm-.962-2.251c0 .552-.449 1-1 1h-16c-.551 0-1-.448-1-1s.449-1 1-1h16c.551 0 1 .448 1 1zm-18-5.879 2.057 2.879h-1.057c-.352 0-.686.072-1 .184zm1.272-5.121h.728c.387 0 .561.161.995.658.467.534 1.173 1.342 2.502 1.342 1.328 0 2.034-.808 2.501-1.342.435-.497.608-.658.996-.658.39 0 .563.161.999.659.468.534 1.175 1.341 2.504 1.341s2.036-.807 2.504-1.341c.436-.498.609-.659.999-.659h.728c.701 0 1.272.57 1.272 1.271 0 .267-.082.522-.237.74l-4.278 5.989h-8.971l-4.277-5.988c-.155-.218-.237-.474-.237-.741 0-.701.571-1.271 1.272-1.271zm-32.272-8h26c1.654 0 3 1.346 3 3v3h-32v-3c0-1.654 1.346-3 3-3zm26 58h-26c-1.654 0-3-1.346-3-3v-3h32v3c0 1.654-1.346 3-3 3zm3-8h-32v-42h32v11c0 .901.407 1.701 1.038 2.251-1.135.822-2.151 1.775-3.038 2.829v-14.08h-28v38h28v-2.068c.609.724 1.28 1.393 2 2.006zm-4-7.017v3.017h-24v-34h24v15.035c-1.287 2.414-2 5.137-2 7.965 0 2.885.727 5.601 2 7.983zm15 7.017c-8.271 0-15-6.729-15-15 0-5.368 2.892-10.323 7.558-13h14.881c4.668 2.674 7.561 7.63 7.561 13 0 8.271-6.729 15-15 15z"/><path d="m53.333 46.199 1.334 1.49c2.492-2.23 4.015-5.287 4.289-8.607l-1.993-.164c-.232 2.808-1.521 5.394-3.63 7.281z"/><path d="m58.956 36.918c-.061-.731-.183-1.46-.365-2.167l-1.937.498c.153.598.257 1.215.309 1.833z"/><path d="m9 17v14h20v-14zm18 12h-16v-10h16z"/><path d="m9 33h18v2h-18z"/><path d="m9 37h18v2h-18z"/><path d="m25 41h2v2h-2z"/><path d="m9 41h14v2h-14z"/><path d="m9 45h18v2h-18z"/><path d="m33 38h2c0-3.693 1.839-7.12 4.918-9.167l-1.107-1.666c-3.639 2.419-5.811 6.469-5.811 10.833z"/></svg>