<svg id="Capa_1" enable-background="new 0 0 512 512" height="512" viewBox="0 0 512 512" width="512" xmlns="http://www.w3.org/2000/svg"><g><g><path d="m293.596 436.936-8.969-27.895-.002-.001h.005l-4.18-13-25.316-23.745-23.584 23.745-13.15 40.9h24.18l.001-.004z" fill="#4e5a61"/><path d="m334.005 448.59c-4.442-9.474-14.111-16.012-25.261-16.015h-93.064l-11.411 4.198c-1.488 0-24.035 8.671-24.035 22.611 0 5.52 4.48 10 10 10l132.979-1.064c5.52 0 10-4.48 10-10 0-2.059 3.243-1.876 2.818-3.809-.454-2.068-1.139-4.051-2.026-5.921z" fill="#5f6c75"/><path d="m336.68 460.444c.013 5.536-4.464 10.066-10 10.066h-141.36c-5.513 0-9.996-4.466-10-9.979-.01-13.949 10.203-25.52 23.56-27.621 1.43-.22 2.89-.34 4.38-.34h12.42l-6.878 9.124c-3.974 5.271-.213 12.816 6.388 12.816h120.84c.425 1.909.645 3.897.65 5.934z" fill="#4e5a61"/><path d="m504.5 355.17v20.87c0 11.05-15.258 16.113-26.309 16.113l-445.702.142c-11.05 0-20-8.95-20-20l-4.989-17.125 263.372-11.702z" fill="#5f6c75"/><path d="m504.5 376.04c0 11.05-8.95 20-20 20h-457c-11.046 0-20-8.954-20-20v-20.87l10-10.51 10 10.51v11.87c0 4.971 4.029 9 9 9z" fill="#4e5a61"/><path d="m504.5 61.49v293.68h-490.989l-.341-292.723c0-11.05 3.28-20.957 14.33-20.957h457c11.05 0 20 8.95 20 20z" fill="#f5fcff"/><path d="m378.447 264.66-241.974 1.868c-11.046 0-20-8.954-20-20l.298-94.209c0-11.046 5.184-21.819 16.229-21.819h246c11.046 0 20 8.954 20 20v100c0 11.046-9.508 14.16-20.553 14.16z" fill="#ccf49f"/><path d="m399 250.5c0 11.05-8.95 20-20 20h-246c-11.046 0-20-8.954-20-20v-100c0-11.05 8.95-20 20-20v110c0 5.523 4.477 10 10 10z" fill="#b3e59f"/><path d="m27.5 41.49v313.68h-20v-293.68c0-11.05 8.95-20 20-20z" fill="#e0f5fc"/><path d="m448.083 263.107-74.812-28.45-.02-.036c-4.839-1.84-9.581 2.901-7.741 7.741l26.723 71.319c.875 2.301 3.996 2.627 5.327.556l5.064-2.58 6.411-9.969c.69-1.073 4.083-3.547 4.985-2.645l15.319 16.17c.781.781 2.047.781 2.828 0l8.621-3.203 7.969-7.969c.781-.781.781-2.047 0-2.828l-18.241-18.241c-.902-.902-.74-2.406.332-3.096l17.789-11.44c2.073-1.333 1.747-4.454-.554-5.329z" fill="#5f6c75"/><g fill="#4e5a61"><path d="m440.79 312.01-7.59 7.59c-.78.78-2.04.78-2.83 0l-18.24-18.24c-.72-.73-1.84-.77-2.6-.19l6.65-10.35c.69-1.07 2.19-1.23 3.1-.33z"/><path d="m402.63 311.66-5.03 7.82c-1.33 2.07-4.46 1.74-5.33-.56l-29.5-77.57c-1.84-4.84 2.9-9.58 7.74-7.74l2.76 1.05 29 76.26c.13.36.25.6.36.74z"/></g></g><g><path d="m504.5 129.5c4.142 0 7.5-3.358 7.5-7.5v-60.51c0-15.164-12.336-27.5-27.5-27.5h-457c-15.164 0-27.5 12.336-27.5 27.5v293.68 20.87c0 15.164 12.336 27.5 27.5 27.5h193.76l-6.924 21.535h-11.082c-1.752 0-3.511.129-5.234.385-.103.012-.205.026-.307.042-17.322 2.725-29.894 17.448-29.894 35.008 0 4.673 1.82 9.068 5.126 12.374s7.701 5.126 12.374 5.126h34.681c4.142 0 7.5-3.358 7.5-7.5s-3.358-7.5-7.5-7.5h-34.68c-.899 0-1.493-.459-1.767-.733s-.733-.867-.733-1.767c0-10.05 7.13-18.487 16.989-20.153.092-.011.183-.024.274-.039 1.041-.162 2.107-.244 3.172-.244h16.525c.008 0 .017.002.025.002s.016-.002.025-.002h88.912c7.891.002 15.142 4.594 18.486 11.729 1.295 2.73 1.951 5.66 1.951 8.707 0 1.378-1.122 2.5-2.5 2.5h-71.679c-4.142 0-7.5 3.358-7.5 7.5s3.358 7.5 7.5 7.5h71.68c9.649 0 17.5-7.851 17.5-17.5 0-5.288-1.143-10.379-3.384-15.104-5.788-12.347-18.368-20.327-32.051-20.332h-11.085c-1.031-3.203-6.21-19.313-6.92-21.535h193.76c15.164 0 27.5-12.336 27.5-27.5v-20.87-197.233c0-4.142-3.358-7.5-7.5-7.5s-7.5 3.358-7.5 7.5v189.734h-371c-4.142 0-7.5 3.358-7.5 7.5s3.358 7.5 7.5 7.5h371v13.37c0 6.893-5.607 12.5-12.5 12.5h-457c-6.893 0-12.5-5.607-12.5-12.5v-13.37h75.106c4.142 0 7.5-3.358 7.5-7.5s-3.358-7.5-7.5-7.5h-75.106v-286.18c0-6.893 5.607-12.5 12.5-12.5h457c6.893 0 12.5 5.607 12.5 12.5v60.51c0 4.142 3.358 7.5 7.5 7.5zm-222.596 295.575h-51.811l6.924-21.535h37.966s6.703 20.848 6.921 21.535z"/><path d="m180.423 159.5h-19.462c-4.142 0-7.5 3.358-7.5 7.5v67c0 1.995.795 3.908 2.208 5.315 1.406 1.4 3.309 2.185 5.292 2.185h.033c.001 0 17.895-.08 22.828-.08 14.08 0 25.534-11.455 25.534-25.534 0-8.307-3.989-15.698-10.15-20.364 2.601-3.717 4.134-8.234 4.134-13.105 0-12.637-10.28-22.917-22.917-22.917zm0 15c4.365 0 7.917 3.552 7.917 7.917s-3.551 7.917-7.917 7.917c-1.371 0-8.445.025-11.962.018v-15.852zm3.399 51.92c-2.813 0-9.831.026-15.361.048v-21.098c1.401-.018 13.136-.022 15.361-.019 5.809 0 10.534 4.726 10.534 10.535s-4.725 10.534-10.534 10.534z"/><path d="m329.711 241.5h.019c4.133 0 7.489-3.346 7.5-7.482l.078-32.008 20.017-30.749c2.26-3.472 1.277-8.118-2.194-10.377s-8.117-1.277-10.377 2.194l-14.949 22.965-15.112-23.144c-2.265-3.469-6.913-4.443-10.38-2.179-3.468 2.265-4.444 6.912-2.179 10.38l20.175 30.899-.078 31.983c-.012 4.142 3.338 7.508 7.48 7.518z"/><path d="m231.856 159.5c-4.142 0-7.5 3.358-7.5 7.5v46.104c0 9.93 4.57 17.677 13.973 23.685 4.881 3.119 10.391 4.704 16.378 4.712h.048c5.164 0 10.01-1.122 14.403-3.334 13.847-6.973 16.754-17.504 16.754-25.111v-46.056c0-4.142-3.358-7.5-7.5-7.5s-7.5 3.358-7.5 7.5v46.055c0 3.461-.966 7.92-8.5 11.714-2.282 1.149-4.858 1.731-7.658 1.731-.009 0-.018 0-.027 0-3.129-.004-5.852-.773-8.322-2.353-5.007-3.199-7.049-6.398-7.049-11.044v-46.103c0-4.142-3.357-7.5-7.5-7.5z"/><path d="m457.459 264.82c-.414-3.964-2.985-7.307-6.71-8.724l-44.249-16.827v-88.769c0-15.164-12.336-27.5-27.5-27.5h-246c-15.164 0-27.5 12.336-27.5 27.5v100c0 15.164 12.336 27.5 27.5 27.5h148c4.142 0 7.5-3.358 7.5-7.5s-3.358-7.5-7.5-7.5h-148c-6.893 0-12.5-5.607-12.5-12.5v-100c0-6.893 5.607-12.5 12.5-12.5h246c6.893 0 12.5 5.607 12.5 12.5v83.065l-18.324-6.968c-5.039-1.916-10.535-.738-14.345 3.072-3.811 3.811-4.988 9.307-3.072 14.345l7.221 18.986h-46.98c-4.142 0-7.5 3.358-7.5 7.5s3.358 7.5 7.5 7.5h52.684l16.575 43.586c1.417 3.725 4.759 6.296 8.724 6.71.372.039.743.058 1.11.058 3.553 0 6.858-1.784 8.812-4.822l7.749-12.05 13.417 13.417c1.794 1.794 4.18 2.783 6.718 2.783 2.537 0 4.923-.988 6.717-2.783l15.556-15.556c1.794-1.794 2.783-4.18 2.783-6.717 0-2.538-.988-4.923-2.783-6.718l-13.417-13.417 12.051-7.749c3.352-2.156 5.178-5.957 4.763-9.922zm-25.67 45.584-14.353-14.352c-1.797-1.798-4.196-2.783-6.704-2.783-.341 0-.684.018-1.027.055-2.872.308-5.414 1.878-6.977 4.307l-6.618 10.291-25.144-66.117 66.117 25.144-10.291 6.618c-2.429 1.563-3.999 4.105-4.307 6.977-.308 2.871.686 5.689 2.728 7.731l14.352 14.353z"/><path d="m80.053 310.447c1.919 0 3.839-.732 5.303-2.197l12.021-12.021c2.929-2.929 2.929-7.678 0-10.606-2.929-2.929-7.678-2.929-10.606 0l-12.021 12.021c-2.929 2.929-2.929 7.678 0 10.606 1.464 1.465 3.383 2.197 5.303 2.197z"/><path d="m83.789 262.088c-1.072-4.001-5.188-6.374-9.186-5.304l-16.421 4.4c-4.001 1.072-6.375 5.185-5.304 9.186.898 3.351 3.928 5.561 7.24 5.561.643 0 1.296-.083 1.946-.257l16.421-4.4c4.001-1.072 6.376-5.185 5.304-9.186z"/><path d="m111.726 304.515-4.4 16.421c-1.072 4.001 1.303 8.113 5.304 9.186.65.174 1.303.257 1.946.257 3.311 0 6.342-2.21 7.24-5.561l4.4-16.421c1.072-4.001-1.303-8.113-5.304-9.186-3.995-1.069-8.114 1.302-9.186 5.304z"/><path d="m425.229 115.377 12.021-12.021c2.929-2.929 2.929-7.678 0-10.606-2.929-2.929-7.678-2.929-10.606 0l-12.021 12.021c-2.929 2.929-2.929 7.678 0 10.606 1.464 1.464 3.384 2.197 5.303 2.197s3.839-.733 5.303-2.197z"/><path d="m459.121 130.63c-1.072-4.001-5.186-6.375-9.186-5.304l-16.421 4.4c-4.001 1.072-6.375 5.185-5.304 9.186.898 3.351 3.928 5.561 7.24 5.561.643 0 1.296-.083 1.946-.257l16.421-4.4c4.001-1.073 6.376-5.185 5.304-9.186z"/><path d="m393.034 102.046c3.311 0 6.342-2.21 7.24-5.561l4.4-16.421c1.072-4.001-1.303-8.113-5.304-9.186-3.996-1.069-8.113 1.302-9.186 5.304l-4.4 16.421c-1.072 4.001 1.303 8.113 5.304 9.186.65.174 1.303.257 1.946.257z"/></g></g></svg>