<svg height="464pt" viewBox="0 -120 464 464" width="464pt" xmlns="http://www.w3.org/2000/svg"><path d="m16 0h432c8.800781 0 16 7.199219 16 16v192c0 8.800781-7.199219 16-16 16h-432c-8.800781 0-16-7.199219-16-16v-192c0-8.800781 7.199219-16 16-16zm0 0" fill="#4a4a56"/><path d="m304 112v112h144c8.800781 0 16-7.199219 16-16v-96zm0 0" fill="#676b7f"/><path d="m304 112v-112h144c8.800781 0 16 7.199219 16 16v96zm0 0" fill="#878b9b"/><g fill="#fff"><path d="m376 24h16v64h-16zm0 0"/><path d="m352 48h64v16h-64zm0 0"/><path d="m352 160h64v16h-64zm0 0"/></g><path d="m144 0h16v64h-16zm0 0" fill="#878b9b"/><path d="m120 56h64v16h-64zm0 0" fill="#878b9b"/><path d="m184 200h-64v-56h48v-24h-48v-16h64v56h-48v24h48zm0 0" fill="#ddad6f"/></svg>