<svg enable-background="new 0 0 100 100" height="512" viewBox="0 0 100 100" width="512" xmlns="http://www.w3.org/2000/svg"><path d="m7.0637817 89.7277298c0 3.3137207 2.6862793 6 6 6h73.8724365c3.3137207 0 6-2.6862793 6-6v-44.1043777h-85.8724365z" fill="#e6e7e8"/><path d="m11.06366 51.017521h33.088169v39.52488h-33.088169z" fill="#4388b9"/><path d="m86.9362183 34.4442787h-73.8724366c-3.3137207 0-6 2.6862793-6 6v6.572998h85.8724365v-6.572998c.0000001-3.3137207-2.6862792-6-5.9999999-6zm-27.2224732 7.4248047h-19.4274292c-.6260376 0-1.1382446-.512207-1.1382446-1.1381836 0-.6262207.512207-1.1384277 1.1382446-1.1384277h19.4274292c.6260376 0 1.1382446.512207 1.1382446 1.1384277 0 .6259766-.512207 1.1381836-1.1382446 1.1381836z" fill="#467080"/><path d="m41.749943 4.272273h16.500116v35.320198h-16.500116z" fill="#cd5148"/><path d="m43.891911 4.272273h1.871465v35.320198h-1.871465z" fill="#db584d"/><path d="m54.236626 4.272273h1.871465v35.320198h-1.871465z" fill="#db584d"/><g fill="#b0b1b5"><path d="m64.570381 69.963562h24.210751v2.30483h-24.210751z"/><path d="m50.000031 76.054894h38.781101v2.30483h-38.781101z"/><path d="m64.570381 63.872223h24.210751v2.30483h-24.210751z"/><path d="m50.000031 82.146233h38.781101v2.30483h-38.781101z"/><path d="m50.000031 88.237572h38.781101v2.30483h-38.781101z"/></g><path d="m23.1991959 75.6606674c.3422527 2.1284485 2.1865215 3.7613525 4.409977 3.7613525 2.223484 0 4.0677776-1.6329041 4.4100037-3.7614059-.7849789-.546257-.7496223-1.2974854-.7496223-1.2974854v-3.2471542h-7.3207092l-.018219 3.2700958c-.0000002.0000001.053602.7283097-.7314302 1.2745972z" fill="#d6b24e"/><path d="m33.3782997 62.3596802c-.0012436 0-.0024529.00037-.0036964.00037-.0778694-3.1730499-2.6409988-5.7445374-5.7653885-5.7445374h-.0000305c-3.1243916 0-5.687521 2.5714874-5.7653885 5.7445374-.0012436 0-.0024548-.00037-.0036983-.00037-.6370144 0-1.1533756 1.040863-1.1533756 2.3248062 0 1.2839355.5163612 2.3247833 1.1533756 2.3247833v.4815979c0 3.240921 2.5960979 5.8926086 5.7690868 5.8926086h.0000305c3.172987 0 5.7690849-2.6516876 5.7690849-5.8926086v-.4815979c.6369858 0 1.1533775-1.0408478 1.1533775-2.3247833 0-1.2839432-.5163917-2.3248062-1.1533775-2.3248062z" fill="#ffd25a"/><path d="m30.8810844 55.8899231s-6.0950184-3.9429932-9.4558353 1.2947197c-2.609705 4.0671768-.9264793 7.5255165-.0435829 8.5692787l.9496422.4230576v-3.3102531c.4489956-1.1969299 1.2889538-2.1202812 2.8535004-1.0328827 1.2307911.855442 2.259407.7563057 3.0546951.3205986 1.723217-.9440346 3.772562-.4731674 4.8535252.9384232v3.0841141h.6806641l.7468834-1.8163147c1.9367408-8.9128763-3.6394922-8.4707414-3.6394922-8.4707414z" fill="#293b44"/><path d="m28.8094406 87.0937271h.2228928l3.1659355-9.2823486-3.1416416-1.5443955-1.1672268 1.1945114.0853405 7.7216263z" fill="#e6e7e8"/><path d="m42.6559067 87.0937271c-.570015-4.1605759-.0070839-6.586235-1.328167-8.1831894-1.5936813-1.9264908-7.8215179-3.6613083-7.8215179-3.6613083l-1.4312744 1.5975113-.186409.8121796-.7256088 3.1821594-.8521023 3.7611923-.7352619 2.4914551z" fill="#344e5c"/><path d="m31.2801228 74.1075287-3.6747475 1.913681 2.8664226 1.7901917z" fill="#dad7dc"/><path d="m26.4013367 87.0937271.8346996-1.9106064.0853405-7.7216263-1.1672268-1.1945114-3.1416416 1.5443955 3.1659336 9.2823486z" fill="#e6e7e8"/><path d="m25.6429157 87.0937271-.7443256-2.4914551-.865427-3.8012619-.7122841-3.1420898-.186409-.8121796-1.4312744-1.5975113s-6.2278118 1.7348175-7.8214741 3.6613083c-1.3209181 1.5967789-.7581034 4.0226135-1.3221378 8.1831894z" fill="#344e5c"/><path d="m23.9306259 74.1075287 3.6747494 1.913681-2.8664227 1.7901917z" fill="#dad7dc"/><path d="m26.2474232 87.0937271h2.7160206l-.6995011-8.9148712.6821442-1.3170624-1.3407211-.8350143-1.3406754.8350143.6821442 1.3170624z" fill="#f37735"/><g fill="#293b44"><path d="m31.1342869 87.0937271 2.9392795-5.6806869-1.6464195-.9644547 1.8816414-1.03479-.7997093-4.1631165-2.2344761-1.1408462-2.8289185 12.9838943z"/><path d="m21.1372128 81.4130402 2.9392776 5.6806869h2.6885567l-2.8288746-12.9838943-2.2343826 1.1408462-.799799 4.1631165 1.8816852 1.03479z"/></g></svg>