<?xml version="1.0" encoding="iso-8859-1"?>
<!-- Generator: Adobe Illustrator 19.0.0, SVG Export Plug-In . SVG Version: 6.00 Build 0)  -->
<svg version="1.1" id="Capa_1" xmlns="http://www.w3.org/2000/svg" xmlns:xlink="http://www.w3.org/1999/xlink" x="0px" y="0px"
	 viewBox="0 0 512 512" style="enable-background:new 0 0 512 512;" xml:space="preserve">
<path style="fill:#303C42;" d="M469.333,149.333c0-23.564-19.103-42.667-42.667-42.667h-384C19.103,106.667,0,125.769,0,149.333V256
	c0,23.564,19.103,42.667,42.667,42.667h384c23.564,0,42.667-19.103,42.667-42.667V149.333z"/>
<path style="fill:#0288D1;" d="M426.667,277.333h-384c-11.782,0-21.333-9.551-21.333-21.333V149.333
	c0-11.782,9.551-21.333,21.333-21.333h384c11.782,0,21.333,9.551,21.333,21.333V256C448,267.782,438.449,277.333,426.667,277.333z"
	/>
<g>
	<path style="fill:#303C42;" d="M102.385,186.667c-2.958-5.104-9.51-6.854-14.573-3.906l-2.479,1.431v-2.858
		c0-5.896-4.771-10.667-10.667-10.667c-5.896,0-10.667,4.771-10.667,10.667v2.858l-2.479-1.431
		c-5.094-2.948-11.625-1.198-14.573,3.906c-2.948,5.104-1.198,11.625,3.906,14.573l2.473,1.427l-2.473,1.427
		c-5.104,2.948-6.854,9.469-3.906,14.573c1.979,3.417,5.563,5.333,9.25,5.333c1.813,0,3.646-0.458,5.323-1.427L64,221.142V224
		c0,5.896,4.771,10.667,10.667,10.667c5.896,0,10.667-4.771,10.667-10.667v-2.858l2.479,1.431c1.677,0.969,3.51,1.427,5.323,1.427
		c3.688,0,7.271-1.917,9.25-5.333c2.948-5.104,1.198-11.625-3.906-14.573l-2.473-1.427l2.473-1.427
		C103.583,198.292,105.333,191.771,102.385,186.667z"/>
	<path style="fill:#303C42;" d="M187.719,186.667c-2.969-5.104-9.5-6.854-14.573-3.906l-2.479,1.431v-2.858
		c0-5.896-4.771-10.667-10.667-10.667c-5.896,0-10.667,4.771-10.667,10.667v2.858l-2.479-1.431
		c-5.115-2.948-11.635-1.198-14.573,3.906c-2.948,5.104-1.198,11.625,3.906,14.573l2.473,1.427l-2.473,1.427
		c-5.104,2.948-6.854,9.469-3.906,14.573c1.979,3.417,5.563,5.333,9.25,5.333c1.813,0,3.646-0.458,5.323-1.427l2.479-1.431V224
		c0,5.896,4.771,10.667,10.667,10.667c5.896,0,10.667-4.771,10.667-10.667v-2.858l2.479,1.431c1.677,0.969,3.51,1.427,5.323,1.427
		c3.688,0,7.271-1.917,9.25-5.333c2.948-5.104,1.198-11.625-3.906-14.573l-2.473-1.427l2.473-1.427
		C188.917,198.292,190.667,191.771,187.719,186.667z"/>
	<path style="fill:#303C42;" d="M273.052,186.667c-2.958-5.104-9.49-6.854-14.573-3.906L256,184.191v-2.858
		c0-5.896-4.771-10.667-10.667-10.667c-5.896,0-10.667,4.771-10.667,10.667v2.858l-2.479-1.431
		c-5.104-2.948-11.635-1.198-14.573,3.906c-2.948,5.104-1.198,11.625,3.906,14.573l2.473,1.427l-2.473,1.427
		c-5.104,2.948-6.854,9.469-3.906,14.573c1.979,3.417,5.563,5.333,9.25,5.333c1.813,0,3.646-0.458,5.323-1.427l2.479-1.431V224
		c0,5.896,4.771,10.667,10.667,10.667c5.896,0,10.667-4.771,10.667-10.667v-2.858l2.479,1.431c1.677,0.969,3.51,1.427,5.323,1.427
		c3.688,0,7.271-1.917,9.25-5.333c2.948-5.104,1.198-11.625-3.906-14.573l-2.473-1.427l2.473-1.427
		C274.25,198.292,276,191.771,273.052,186.667z"/>
</g>
<polyline style="fill:#0288D1;" points="341.333,277.333 341.313,277.333 341.333,277.333 "/>
<path style="fill:#303C42;" d="M490.667,256v-10.667c0-41.167-33.5-74.667-74.667-74.667s-74.667,33.5-74.667,74.667V256
	c-11.76,0-21.333,9.573-21.333,21.333V384c0,11.76,9.573,21.333,21.333,21.333h149.333c11.76,0,21.333-9.573,21.333-21.333V277.333
	C512,265.573,502.427,256,490.667,256z M469.333,256H362.667v-10.667C362.667,215.927,386.594,192,416,192
	s53.333,23.927,53.333,53.333V256z"/>
<polygon style="fill:#E6E6E6;" points="490.667,384 341.333,384 341.333,277.333 341.313,277.333 341.333,277.333 490.667,277.333 
	"/>
<g>
	<path style="fill:#303C42;" d="M416,298.667c-11.76,0-21.333,9.573-21.333,21.333c0,7.792,4.409,14.329,10.667,18.053V352
		c0,5.896,4.771,10.667,10.667,10.667c5.896,0,10.667-4.771,10.667-10.667v-13.947c6.258-3.724,10.667-10.262,10.667-18.053
		C437.333,308.24,427.76,298.667,416,298.667z M416.01,320c0,0-0.01-0.01-0.01-0.021L426.667,320H416.01z"/>
	<path style="fill:#303C42;" d="M358.349,186.667c-2.958-5.104-9.49-6.854-14.573-3.906l-2.479,1.431v-2.858
		c0-5.896-4.771-10.667-10.667-10.667s-10.667,4.771-10.667,10.667v2.858l-2.479-1.431c-5.104-2.948-11.635-1.198-14.573,3.906
		c-2.948,5.104-1.198,11.625,3.906,14.573l2.473,1.427l-2.473,1.427c-5.104,2.948-6.854,9.469-3.906,14.573
		c1.979,3.417,5.563,5.333,9.25,5.333c1.813,0,3.646-0.458,5.323-1.427l2.479-1.431V224c0,5.896,4.771,10.667,10.667,10.667
		s10.667-4.771,10.667-10.667v-2.858l2.479,1.431c1.677,0.969,3.51,1.427,5.323,1.427c3.688,0,7.271-1.917,9.25-5.333
		c2.948-5.104,1.198-11.625-3.906-14.573l-2.473-1.427l2.473-1.427C359.546,198.292,361.296,191.771,358.349,186.667z"/>
</g>
<linearGradient id="SVGID_1_" gradientUnits="userSpaceOnUse" x1="-45.8658" y1="641.7242" x2="-21.6848" y2="630.4462" gradientTransform="matrix(21.3333 0 0 -21.3333 996.3334 13791.667)">
	<stop  offset="0" style="stop-color:#FFFFFF;stop-opacity:0.2"/>
	<stop  offset="1" style="stop-color:#FFFFFF;stop-opacity:0"/>
</linearGradient>
<path style="fill:url(#SVGID_1_);" d="M490.667,256v-10.667c0-20.266-8.178-38.622-21.333-52.09v-43.91
	c0-23.565-19.103-42.667-42.667-42.667h-384C19.103,106.667,0,125.768,0,149.333V256c0,23.564,19.103,42.667,42.667,42.667H320V384
	c0,11.76,9.573,21.333,21.333,21.333h149.333c11.76,0,21.333-9.573,21.333-21.333V277.333C512,265.573,502.427,256,490.667,256z"/>
<g>
</g>
<g>
</g>
<g>
</g>
<g>
</g>
<g>
</g>
<g>
</g>
<g>
</g>
<g>
</g>
<g>
</g>
<g>
</g>
<g>
</g>
<g>
</g>
<g>
</g>
<g>
</g>
<g>
</g>
</svg>
