<svg id="_x33_0" enable-background="new 0 0 64 64" height="512" viewBox="0 0 64 64" width="512" xmlns="http://www.w3.org/2000/svg"><g><g><g><path d="m62 4v14c0 1.1-.9 2-2 2h-3l-4.61 6.45c-.24.34-.64.55-1.07.55-.73 0-1.32-.59-1.32-1.32v-5.68h-12c-1.1 0-2-.9-2-2v-14c0-1.1.9-2 2-2h22c1.1 0 2 .9 2 2z" fill="#e6e9ed"/></g><g><path d="m8 54h22v8h-22z" fill="#b4dd7f"/></g><g><path d="m28.78 28c1.57-.94 3.34-1.59 5.22-1.86v-9.14c0-.83-.34-1.58-.88-2.12s-1.29-.88-2.12-.88c-1.66 0-3 1.34-3 3v-8c0-1.66-1.34-3-3-3-.83 0-1.58.34-2.12.88s-.88 1.29-.88 2.12v-4c0-.83-.34-1.58-.88-2.12s-1.29-.88-2.12-.88c-1.66 0-3 1.34-3 3v4c0-.83-.34-1.58-.88-2.12s-1.29-.88-2.12-.88c-1.66 0-3 1.34-3 3v19c0-1.66-.67-3.16-1.76-4.24-1.08-1.09-2.58-1.76-4.24-1.76-1.1 0-2 .9-2 2v13.78c0 2.98.53 5.9 1.55 8.65 1.01 2.74 2.51 5.31 4.45 7.57h22c.18-.37.36-.74.53-1.11-5.02-2.14-8.53-7.1-8.53-12.89 0-5.09 2.72-9.55 6.78-12z" fill="#f0d0b4"/></g><g><path d="m36 26c7.73 0 14 6.27 14 14s-6.27 14-14 14c-1.94 0-3.8-.4-5.47-1.11-5.02-2.14-8.53-7.1-8.53-12.89 0-5.09 2.72-9.55 6.78-12 1.57-.94 3.34-1.59 5.22-1.86.65-.09 1.32-.14 2-.14z" fill="#fcd770"/></g></g><g><path d="m60 1h-22c-1.654 0-3 1.346-3 3v13c0-2.206-1.794-4-4-4-.732 0-1.409.212-2 .556v-4.556c0-2.206-1.794-4-4-4-.732 0-1.409.212-2 .556v-.556c0-2.206-1.794-4-4-4s-4 1.794-4 4v.556c-.591-.344-1.268-.556-2-.556-2.206 0-4 1.794-4 4v14.111c-1.272-1.301-3.042-2.111-5-2.111-1.654 0-3 1.346-3 3v13.781c0 6.052 2.136 11.912 6 16.561v8.658h24v-8.772c.014-.029.028-.059.042-.088 1.555.547 3.219.86 4.958.86 8.271 0 15-6.729 15-15s-6.729-15-15-15c-.338 0-.668.029-1 .051v-7.051c0 1.654 1.346 3 3 3h11v4.68c0 1.279 1.041 2.32 2.32 2.32.749 0 1.455-.363 1.888-.972l4.307-6.028h2.485c1.654 0 3-1.346 3-3v-14c0-1.654-1.346-3-3-3zm-35 6c1.103 0 2 .897 2 2v18h-4v-18c0-1.103.897-2 2-2zm-8-2c0-1.103.897-2 2-2s2 .897 2 2v22h-2c-.67 0-1.337.056-2 .141zm-6 4c0-1.103.897-2 2-2s2 .897 2 2v18.52c-1.4.363-2.746.919-4 1.641zm-8 15c0-.551.448-1 1-1 2.757 0 5 2.243 5 5v5.586c0 .534.208 1.036.587 1.415l.171.17c2.091 2.091 3.242 4.871 3.242 7.829h2c0-3.492-1.359-6.774-3.829-9.244l-.171-.17v-2.061c2.336-1.625 5.153-2.525 8-2.525h6.836c-2.965 2.742-4.836 6.652-4.836 11 0 5.558 3.045 10.409 7.548 13l-20.083-.001c-3.527-4.278-5.465-9.664-5.465-15.218zm6 37v-6h20v6zm40-21c0 7.168-5.832 13-13 13s-13-5.832-13-13 5.832-13 13-13 13 5.832 13 13zm-20-13.256v-9.744c0-1.103.897-2 2-2s2 .897 2 2v8.302c-1.417.289-2.758.783-4 1.442zm32-8.744c0 .551-.448 1-1 1h-3.515l-4.905 6.867c-.161.226-.58.093-.58-.187v-6.68h-13c-.552 0-1-.449-1-1v-14c0-.551.448-1 1-1h22c.552 0 1 .449 1 1z"/><path d="m35 48.899v2.101h2v-2h4v-5c0-2.757-2.243-5-5-5-1.654 0-3-1.346-3-3v-3h3c1.654 0 3 1.346 3 3v3h2v-3c0-2.414-1.721-4.434-4-4.899v-2.101h-2v2h-4v5c0 2.757 2.243 5 5 5 1.654 0 3 1.346 3 3v3h-3c-1.654 0-3-1.346-3-3v-3h-2v3c0 2.414 1.721 4.434 4 4.899z"/><path d="m52 11c-1.654 0-3 1.346-3 3s1.346 3 3 3 3-1.346 3-3-1.346-3-3-3zm0 4c-.552 0-1-.449-1-1s.448-1 1-1 1 .449 1 1-.448 1-1 1z"/><path d="m46 11c1.654 0 3-1.346 3-3s-1.346-3-3-3-3 1.346-3 3 1.346 3 3 3zm0-4c.552 0 1 .449 1 1s-.448 1-1 1-1-.449-1-1 .448-1 1-1z"/><path d="m41.929 10h14.142v2h-14.142z" transform="matrix(.707 -.707 .707 .707 6.574 37.87)"/></g></g></svg>