<svg height="496pt" viewBox="-24 0 496 496.06857" width="496pt" xmlns="http://www.w3.org/2000/svg"><path d="m134.683594 391.484375c-2.800782.136719-5.65625.25-8.546875.335937 2.882812-.085937 5.738281-.191406 8.546875-.335937zm0 0" fill="#ffda44"/><path d="m187.234375 384.628906c-.886719.214844-1.769531.433594-2.6875.632813.917969-.199219 1.800781-.394531 2.6875-.632813zm0 0" fill="#ffda44"/><path d="m170.808594 387.867188c-1.519532.242187-3.109375.457031-4.679688.671874 1.570313-.214843 3.160156-.429687 4.679688-.671874zm0 0" fill="#ffda44"/><path d="m163.296875 388.941406c-1.871094.238282-3.78125.464844-5.71875.679688 1.9375-.214844 3.855469-.433594 5.71875-.679688zm0 0" fill="#ffda44"/><path d="m155.714844 389.828125c-2.296875.25-4.617188.472656-7 .679687 2.378906-.207031 4.710937-.433593 7-.679687zm0 0" fill="#ffda44"/><path d="m180.394531 386.132812c-.921875.183594-1.816406.382813-2.769531.558594.953125-.175781 1.847656-.367187 2.769531-.558594zm0 0" fill="#ffda44"/><path d="m198.835938 381.285156c-.664063.230469-1.386719.457032-2.082032.679688.695313-.222656 1.417969-.449219 2.082032-.679688zm0 0" fill="#ffda44"/><path d="m193.363281 383.011719c-.800781.234375-1.601562.457031-2.402343.679687.792968-.222656 1.609374-.421875 2.402343-.679687zm0 0" fill="#ffda44"/><path d="m203.609375 379.460938c-.375.160156-.800781.304687-1.191406.464843.382812-.160156.816406-.304687 1.191406-.464843zm0 0" fill="#ffda44"/><path d="m208.746094 376.867188c-.40625.234374-.800782.472656-1.199219.707031.429687-.234375.792969-.472657 1.199219-.707031zm0 0" fill="#ffda44"/><path d="m211.921875 374.707031c-.34375.28125-.6875.554688-1.070313.800781.382813-.238281.726563-.519531 1.070313-.800781zm0 0" fill="#ffda44"/><path d="m214.164062 372.546875c-.234374.28125-.496093.5625-.800781.800781.269531-.238281.566407-.480468.800781-.800781zm0 0" fill="#ffda44"/><path d="m215.539062 370.332031c-.105468.25-.273437.496094-.402343.738281.148437-.238281.28125-.484374.402343-.738281zm0 0" fill="#ffda44"/><path d="m112.035156 344.070312c8.238282 0 16.320313-.242187 24-.640624 1.597656-.082032 3.117188-.160157 4.640625-.320313-.753906-.453125-1.429687-1.019531-2-1.679687-.527343-.519532-1.007812-1.082032-1.441406-1.679688-.765625-1.078125-1.183594-2.359375-1.199219-3.679688.015625 1.320313.433594 2.601563 1.199219 3.679688.433594.597656.914063 1.160156 1.441406 1.679688.570313.660156 1.246094 1.226562 2 1.679687 43.519531-2.800781 75.359375-12.082031 75.359375-23.039063v-48c0 10.957032-31.839844 20.238282-75.359375 23.039063-1.523437.160156-3.042969.238281-4.640625.320313-7.679687.398437-15.761718.640624-24 .640624-57.441406 0-104-10.722656-104-24v48c0 13.277344 46.558594 24 104 24zm0 0" fill="#ffe682"/><path d="m123.816406 391.902344c-3.871094.101562-7.78125.167968-11.78125.167968 4 0 7.910156-.066406 11.78125-.167968zm0 0" fill="#ffda44"/><path d="m138.738281 391.269531c3.375-.207031 6.683594-.453125 9.921875-.738281-2.609375.226562-5.277344.425781-8 .601562-.625.039063-1.28125.0625-1.921875.136719zm0 0" fill="#ffda44"/><path d="m112.035156 248.070312c57.4375 0 104-10.722656 104-24 0-9.035156-21.664062-16.953124-53.601562-21.035156-31.328125 17.378906-69.40625 17.378906-100.734375 0-32 4.082032-53.601563 12-53.601563 21.035156-.0625 13.277344 46.496094 24 103.9375 24zm0 0" fill="#dfc972"/><path d="m440.035156 488.070312v-304h-224v304zm-96-32h-32v-32h32zm0-64h-32v-32h32zm0-64h-32v-32h32zm64 128h-32v-96h32zm0-128h-32v-32h32zm-160-112h160v48h-160zm0 80h32v32h-32zm0 64h32v32h-32zm0 64h32v32h-32zm0 0" fill="#acabb1"/><path d="m248.035156 216.070312h160v48h-160zm0 0" fill="#78b9eb"/><path d="m248.035156 296.070312h32v32h-32zm0 0" fill="#d80027"/><path d="m312.035156 296.070312h32v32h-32zm0 0" fill="#d80027"/><path d="m376.035156 296.070312h32v32h-32zm0 0" fill="#d80027"/><path d="m248.035156 360.070312h32v32h-32zm0 0" fill="#d80027"/><path d="m312.035156 360.070312h32v32h-32zm0 0" fill="#d80027"/><path d="m376.035156 360.070312h32v96h-32zm0 0" fill="#d80027"/><path d="m248.035156 424.070312h32v32h-32zm0 0" fill="#d80027"/><path d="m312.035156 424.070312h32v32h-32zm0 0" fill="#d80027"/><path d="m162.433594 203.035156c41.488281-22.964844 62.1875-71.085937 50.328125-117-11.859375-45.910156-53.277344-77.988281-100.695313-77.988281-47.417968 0-88.835937 32.078125-100.695312 77.988281-11.859375 45.914063 8.839844 94.035156 50.328125 117 31.328125 17.378906 69.40625 17.378906 100.734375 0zm-98.398438-50.964844c0 8.835938 7.164063 16 16 16h32v-56h-32c-8.835937 0-16-7.164062-16-16v-24c0-8.839843 7.164063-16 16-16h64c8.835938 0 16 7.160157 16 16 0-8.839843-7.164062-16-16-16h-32v56h32c8.835938 0 16 7.160157 16 16v24c0 8.835938-7.164062 16-16 16h-64c-8.835937 0-16-7.164062-16-16zm0 0" fill="#ffda44"/><path d="m112.035156 56.070312h-32c-8.835937 0-16 7.160157-16 16v24c0 8.835938 7.164063 16 16 16h32zm0 0" fill="#ffda44"/><path d="m160.035156 152.070312v-24c0-8.839843-7.164062-16-16-16h-32v56h32c8.835938 0 16-7.164062 16-16zm0 0" fill="#ffda44"/><path d="m112.035156 296.070312c8.238282 0 16.320313-.242187 24-.640624 1.597656-.082032 3.117188-.160157 4.640625-.320313 43.519531-2.800781 75.359375-12.082031 75.359375-23.039063v-48c0 13.277344-46.5625 24-104 24-57.441406 0-104-10.722656-104-24v48c0 13.277344 46.558594 24 104 24zm0 0" fill="#ffda44"/><path d="m112.035156 392.070312c4 0 7.910156-.066406 11.78125-.167968.800782 0 1.546875-.058594 2.320313-.082032 2.890625-.085937 5.746093-.199218 8.546875-.335937 1.367187-.070313 2.703125-.160156 4.054687-.238281.640625-.050782 1.304688-.074219 1.9375-.136719 2.714844-.175781 5.378907-.375 8-.601563h.054688c2.398437-.207031 4.703125-.429687 7-.679687l1.863281-.207031c1.9375-.214844 3.847656-.441406 5.71875-.679688l2.832031-.402344c1.601563-.214843 3.160157-.429687 4.683594-.671874 2.339844-.367188 4.613281-.757813 6.8125-1.175782.953125-.175781 1.851563-.375 2.769531-.558594 1.40625-.28125 2.808594-.566406 4.152344-.871093.917969-.199219 1.800781-.417969 2.6875-.632813 1.265625-.304687 2.496094-.617187 3.6875-.9375.800781-.222656 1.648438-.445312 2.402344-.679687 1.175781-.335938 2.292968-.6875 3.390625-1.046875.695312-.222656 1.414062-.449219 2.078125-.679688 1.273437-.441406 2.449218-.898437 3.585937-1.359375.382813-.160156.800781-.304687 1.191407-.464843 1.433593-.617188 2.726562-1.242188 3.9375-1.886719.429687-.234375.800781-.472657 1.199218-.707031.742188-.4375 1.464844-.878907 2.105469-1.335938.382813-.269531.726563-.542969 1.070313-.796875.515624-.410156 1.007812-.851563 1.472656-1.320313.269531-.28125.535156-.5625.800781-.800781.371094-.460937.695313-.957031.972656-1.480469.128907-.242187.296875-.488281.402344-.734374.316406-.738282.480469-1.527344.488281-2.328126v-48c0 10.957032-31.839844 20.238282-75.359375 23.039063-1.523437.160156-3.042969.238281-4.640625.320313-7.679687.398437-15.761718.640624-24 .640624-57.441406 0-104-10.722656-104-24v48c0 13.277344 46.558594 24 104 24zm0 0" fill="#ffda44"/><path d="m112.035156 440.070312c57.4375 0 104-10.722656 104-24v-48c-.015625.777344-.1875 1.546876-.496094 2.261719-.121093.253907-.253906.5-.402343.738281-.277344.519532-.601563 1.015626-.972657 1.476563-.234374.28125-.496093.5625-.800781.800781-.464843.472656-.957031.910156-1.472656 1.320313-.34375.28125-.6875.550781-1.074219.800781-.636718.457031-1.359375.894531-2.101562 1.335938-.410156.230468-.800782.472656-1.199219.703124-1.210937.640626-2.503906 1.273438-3.9375 1.890626-.375.15625-.800781.300781-1.191406.460937-1.144531.464844-2.3125.921875-3.585938 1.359375-.664062.234375-1.382812.457031-2.078125.683594-1.097656.359375-2.214844.710937-3.390625 1.046875-.800781.230469-1.601562.457031-2.402343.679687-1.191407.320313-2.398438.632813-3.6875.9375-.886719.214844-1.769532.429688-2.6875.628906-1.34375.304688-2.746094.59375-4.152344.875-.921875.191407-1.816406.382813-2.769532.558594-2.203124.414063-4.472656.808594-6.816406 1.175782-1.519531.238281-3.109375.457031-4.679687.671874l-2.832031.398438c-1.863282.25-3.78125.464844-5.71875.679688l-1.863282.210937c-2.289062.246094-4.621094.472656-7 .679687h-.054687c-3.234375.289063-6.539063.53125-9.921875.734376-.894532.058593-1.769532.136718-2.703125.183593l-1.351563.058594c-2.808594.144531-5.664062.246094-8.546875.335937-.796875 0-1.535156.0625-2.316406.078126-3.882813.167968-7.792969.234374-11.792969.234374-57.441406 0-104-10.722656-104-24v48c0 13.277344 46.558594 24 104 24zm0 0" fill="#ffe682"/><g fill="#ffda44"><path d="m207.546875 377.574219c-1.207031.644531-2.503906 1.269531-3.9375 1.886719 1.433594-.617188 2.730469-1.25 3.9375-1.886719zm0 0"/><path d="m210.851562 375.53125c-.640624.457031-1.359374.898438-2.105468 1.335938.746094-.4375 1.464844-.878907 2.105468-1.335938zm0 0"/><path d="m202.433594 379.925781c-1.136719.460938-2.3125.917969-3.582032 1.359375 1.253907-.417968 2.421876-.898437 3.582032-1.359375zm0 0"/><path d="m216.035156 368.070312c-.015625.777344-.1875 1.546876-.496094 2.261719.308594-.714843.480469-1.484375.496094-2.261719zm0 0"/><path d="m213.394531 373.386719c-.464843.472656-.953125.914062-1.472656 1.320312.519531-.40625 1.007813-.847656 1.472656-1.320312zm0 0"/><path d="m215.136719 371.070312c-.277344.519532-.601563 1.015626-.972657 1.476563.371094-.460937.695313-.957031.972657-1.476563zm0 0"/><path d="m136.035156 391.429688c.933594-.050782 1.808594-.128907 2.703125-.183594-1.351562.078125-2.6875.167968-4.054687.238281zm0 0"/><path d="m157.578125 389.621094-1.863281.207031zm0 0"/><path d="m177.632812 386.691406c-2.203124.417969-4.472656.808594-6.816406 1.175782 2.34375-.367188 4.613282-.757813 6.816406-1.175782zm0 0"/><path d="m190.921875 383.691406c-1.191406.320313-2.398437.632813-3.6875.9375 1.265625-.304687 2.496094-.617187 3.6875-.9375zm0 0"/><path d="m184.546875 385.261719c-1.34375.304687-2.746094.589843-4.152344.871093 1.40625-.28125 2.839844-.566406 4.152344-.871093zm0 0"/><path d="m166.128906 388.539062-2.832031.402344zm0 0"/><path d="m196.753906 381.964844c-1.09375.359375-2.214844.710937-3.390625 1.046875 1.175781-.335938 2.296875-.6875 3.390625-1.046875zm0 0"/><path d="m126.136719 391.820312c-.796875 0-1.535157.0625-2.320313.082032.785156-.019532 1.539063-.058594 2.320313-.082032zm0 0"/><path d="m112.035156 440.070312c-57.441406 0-104-10.722656-104-24v48c0 13.277344 46.558594 24 104 24 57.4375 0 104-10.722656 104-24v-48c0 13.277344-46.5625 24-104 24zm0 0"/></g><path d="m208.035156 176.070312v29.8125c-7.921875-3.417968-16.199218-5.945312-24.679687-7.527343 36.425781-30.082031 50.058593-79.792969 34.074219-124.25-15.984376-44.457031-58.152344-74.105469-105.394532-74.105469-47.246094 0-89.410156 29.648438-105.394531 74.105469s-2.355469 94.167969 34.074219 124.25c-27 5.570312-40.6796878 14.183593-40.6796878 25.714843v240c0 31.101563 100.5351558 32 111.9999998 32 8.582032 0 67.144532-.503906 96-13.832031v13.832031h240v-320zm-1 240.511719c-.257812.222657-.59375.453125-.921875.6875-.328125.230469-.519531.375-.839843.574219-.320313.199219-.863282.488281-1.328126.738281-.464843.246094-.71875.390625-1.136718.589844-.414063.199219-1.125.503906-1.710938.753906-.582031.246094-.925781.414063-1.457031.621094-.527344.210937-1.367187.503906-2.070313.761719-.585937.207031-1.144531.414062-1.777343.632812-.796875.253906-1.597657.511719-2.46875.800782l-2.035157.613281c-.902343.257812-1.902343.503906-2.871093.800781-.800781.199219-1.496094.398438-2.3125.601562-1 .238282-2.09375.480469-3.160157.71875-.886718.191407-1.734374.398438-2.664062.59375-1.09375.222657-2.277344.445313-3.429688.664063-1.007812.191406-1.976562.390625-3.035156.574219-1.230468.222656-2.550781.425781-3.847656.632812-1.0625.167969-2.085938.351563-3.199219.511719-1.390625.207031-2.878906.398437-4.335937.589844-1.109375.144531-2.191406.304687-3.351563.449219-1.496093.175781-3.097656.335937-4.664062.503906-1.199219.128906-2.359375.273437-3.609375.382812-1.597656.152344-3.285156.28125-4.941406.417969-1.3125.105469-2.578126.222656-3.921876.320313-1.765624.128906-3.621093.222656-5.453124.328124-1.320313.070313-2.601563.160157-3.953126.222657-2.183593.105469-4.472656.167969-6.738281.242187-1.085937 0-2.132812.085938-3.238281.109375-3.425781.03125-6.933594.050781-10.527344.050781s-7.105468-.042968-10.527344-.121093c-1.105468 0-2.152343-.082031-3.242187-.113281-2.261719-.070313-4.550781-.136719-6.734375-.238282-1.351562-.066406-2.632812-.152344-3.953125-.226562-1.832031-.101563-3.6875-.199219-5.457031-.328125-1.351563-.09375-2.621094-.214844-3.933594-.320313-1.648438-.132812-3.335938-.261718-4.929688-.414062-1.246093-.113282-2.398437-.257813-3.632812-.382813-1.550781-.167969-3.144531-.328125-4.640625-.503906-1.15625-.144531-2.238281-.304687-3.351563-.449219-1.453124-.191406-2.941406-.382812-4.335937-.59375-1.109375-.160156-2.132813-.34375-3.199219-.511718-1.296875-.207032-2.617187-.40625-3.847656-.628907-1.054688-.1875-2.023438-.386719-3.03125-.578125-1.152344-.214844-2.335938-.441406-3.433594-.664062-.925781-.191406-1.773437-.398438-2.664062-.589844-1.0625-.242188-2.160156-.480469-3.160156-.722656-.796876-.199219-1.542969-.398438-2.3125-.597656-.964844-.257813-1.964844-.503907-2.871094-.800782l-2.03125-.617187c-.839844-.253907-1.695313-.511719-2.472656-.800781-.632813-.214844-1.191407-.421876-1.78125-.636719-.59375-.21875-1.425782-.507813-2.058594-.753907-.632813-.246093-.984375-.414062-1.472656-.625-.488282-.207031-1.183594-.503906-1.703126-.75-.519531-.25-.757812-.394531-1.136718-.59375-.375-.199218-.941406-.496093-1.328125-.734374-.382813-.242188-.566407-.386719-.796875-.578126-.234375-.191406-.664063-.460937-.921875-.6875-.191407-.167968-.371094-.355468-.527344-.558593-.183594-.148438-.355469-.3125-.511719-.488281v-29.222657l.160156.070313c1.597657.710937 3.238282 1.382812 4.957032 2.03125l1.289062.472656c1.816406.648438 3.6875 1.265625 5.640625 1.839844h.070313c1.945312.566406 4 1.097656 6.027344 1.601562l1.4375.351563c4.210937.992187 8.585937 1.847656 13.03125 2.589843l1.449218.242188c4.496094.726562 9.039063 1.335938 13.527344 1.855469l1.371094.152343c4.484375.496094 8.886718.894532 13.109375 1.222657l1.320312.105469c4.191407.304687 8.167969.542968 11.839844.71875l1.046875.046874c3.625.167969 6.898438.28125 9.738281.363282h.839844c2.726563.070312 4.984375.101562 6.679687.109375h2.464844c1.519532 0 4.671875 0 8.894532-.121094 5.097656-.101563 10.257812-.253906 15.496093-.527344 1.769531-.085937 3.433594-.183593 4.800781-.328125 20.683594-.851562 41.167969-4.367187 60.953126-10.453125l.40625-.152343c1.738281-.640626 3.398437-1.320313 4.976562-2.042969.160156-.070313.34375-.125.503906-.207031v29.226562c-.140625.199219-.296875.386719-.472656.558594-.164062.222656-.351562.429687-.558594.617187zm-191-174.34375.160156.070313c1.597657.710937 3.238282 1.382812 4.957032 2.03125l1.289062.472656c1.816406.648438 3.6875 1.265625 5.640625 1.839844h.070313c1.945312.566406 4 1.097656 6.027344 1.601562l1.4375.351563c4.210937.992187 8.585937 1.847656 13.03125 2.589843l1.449218.242188c4.496094.726562 9.039063 1.335938 13.527344 1.855469l1.371094.152343c4.484375.496094 8.886718.894532 13.109375 1.222657l1.320312.105469c4.191407.304687 8.167969.542968 11.839844.71875l1.046875.046874c3.625.167969 6.898438.28125 9.738281.363282h.839844c2.726563.070312 4.984375.101562 6.679687.109375h4.929688c1.695312 0 3.949219 0 6.679688-.109375h.839843c2.839844-.082032 6.109375-.195313 9.734375-.363282l1.046875-.046874c3.671875-.175782 7.648438-.414063 11.839844-.71875l1.320313-.105469c4.226562-.328125 8.625-.726563 13.113281-1.222657l1.367187-.152343c4.488282-.519531 9.03125-1.128907 13.527344-1.855469l1.449219-.242188c4.449219-.742187 8.800781-1.597656 13.03125-2.589843l1.449219-.351563c2.046874-.503906 4.0625-1.023437 6.007812-1.601562h.089844c1.949218-.574219 3.8125-1.191406 5.597656-1.839844l1.289062-.472656c1.71875-.648438 3.390626-1.320313 4.960938-2.03125l.160156-.070313v29.277344c-2.753906 3.871094-22.824218 12.714844-68.21875 15.640625-1.367187.144531-2.734375.207031-4.199218.28125-8.054688.421875-16 .632812-23.582032.632812-3.601562 0-7.109375-.042968-10.53125-.121093-1.101562 0-2.148437-.082031-3.238281-.113281-2.265625-.070313-4.550781-.136719-6.734375-.238282-1.355469-.066406-2.632812-.152344-3.953125-.226562-1.832031-.101563-3.6875-.199219-5.457031-.328125-1.351563-.09375-2.625-.214844-3.9375-.320313-1.644532-.132812-3.335938-.261718-4.925782-.414062-1.25-.113282-2.398437-.257813-3.632812-.382813-1.550781-.167969-3.144531-.328125-4.640625-.503906-1.160156-.144531-2.238281-.304687-3.351563-.449219-1.457031-.191406-2.941406-.382812-4.335937-.59375-1.113281-.160156-2.136719-.34375-3.199219-.511718-1.296875-.207032-2.617187-.40625-3.847656-.628907-1.054688-.1875-2.023438-.386719-3.03125-.578125-1.152344-.214844-2.335938-.441406-3.433594-.664062-.925781-.191406-1.777344-.398438-2.664062-.589844-1.0625-.242188-2.160156-.480469-3.160156-.722656-.800782-.199219-1.542969-.398438-2.3125-.597656-.96875-.257813-1.96875-.503907-2.871094-.800782l-2.03125-.617187c-.839844-.253907-1.695313-.511719-2.472656-.800781-.632813-.214844-1.191407-.421876-1.785157-.636719-.589843-.21875-1.421875-.507813-2.054687-.753907-.632813-.246093-.984375-.414062-1.472656-.625-.488282-.207031-1.183594-.503906-1.703126-.75-.519531-.25-.761718-.394531-1.136718-.59375-.375-.199218-.945313-.496093-1.328125-.734374-.382813-.242188-.566407-.386719-.800781-.578126-.230469-.191406-.664063-.460937-.917969-.6875-.191407-.167968-.371094-.355468-.527344-.558593-.175781-.148438-.335937-.3125-.480469-.488281zm0 48 .160156.070313c1.597657.710937 3.238282 1.382812 4.957032 2.03125l1.289062.472656c1.816406.648438 3.6875 1.265625 5.640625 1.839844h.070313c1.945312.566406 4 1.097656 6.027344 1.601562l1.4375.351563c4.210937.992187 8.585937 1.847656 13.03125 2.589843l1.449218.242188c4.496094.726562 9.039063 1.335938 13.527344 1.855469l1.371094.152343c4.484375.496094 8.886718.894532 13.109375 1.222657l1.320312.105469c4.191407.304687 8.167969.542968 11.839844.71875l1.046875.046874c3.625.167969 6.898438.28125 9.738281.363282h.839844c2.726563.070312 4.984375.101562 6.679687.109375h2.464844c7.863282 0 16.085938-.214844 24.414063-.648438 1.753906-.085937 3.410156-.183593 4.746093-.328125 20.109376-1.292968 49.023438-4.605468 66.839844-12.886718v29.257812c-2.585937 3.847656-22.585937 12.75-68.21875 15.695312-1.367187.144532-2.734375.207032-4.199218.277344-8.054688.425782-16 .632813-23.582032.632813-3.601562 0-7.109375-.039063-10.527344-.121094-1.105468 0-2.152343-.078125-3.242187-.109375-2.261719-.074219-4.550781-.136719-6.734375-.242188-1.351562-.0625-2.632812-.152343-3.953125-.222656-1.832031-.105468-3.6875-.199218-5.457031-.328125-1.351563-.097656-2.621094-.214843-3.933594-.320312-1.648438-.136719-3.335938-.261719-4.929688-.414063-1.246093-.113281-2.398437-.257812-3.632812-.386718-1.550781-.167969-3.144531-.328126-4.640625-.503907-1.15625-.144531-2.238281-.300781-3.351563-.445312-1.453124-.195313-2.941406-.386719-4.335937-.59375-1.109375-.160157-2.132813-.34375-3.199219-.511719-1.296875-.207031-2.617187-.40625-3.847656-.632812-1.054688-.183594-2.023438-.382813-3.03125-.574219-1.152344-.21875-2.335938-.441407-3.433594-.664063-.925781-.191406-1.773437-.402344-2.664062-.59375-1.0625-.238281-2.160156-.480468-3.160156-.71875-.796876-.199218-1.542969-.398437-2.3125-.601562-.964844-.253906-1.964844-.503906-2.871094-.796875l-2.03125-.617188c-.839844-.257812-1.695313-.511719-2.472656-.800781-.632813-.214844-1.191407-.425781-1.78125-.640625-.59375-.214844-1.425782-.503906-2.058594-.75-.632813-.25-.984375-.417969-1.472656-.625-.488282-.207031-1.183594-.503906-1.703126-.753906-.519531-.246094-.757812-.390625-1.136718-.589844-.375-.199219-.941406-.496094-1.328125-.738281-.382813-.238282-.566407-.382813-.796875-.574219-.234375-.191406-.664063-.464844-.921875-.6875-.191407-.171875-.371094-.359375-.527344-.5625-.183594-.128906-.355469-.273437-.511719-.429687zm0 48 .160156.070313c1.597657.710937 3.238282 1.382812 4.957032 2.03125l1.289062.472656c1.816406.648438 3.6875 1.265625 5.640625 1.839844h.070313c1.945312.566406 4 1.097656 6.027344 1.601562l1.4375.351563c4.210937.992187 8.585937 1.847656 13.03125 2.589843l1.449218.242188c4.496094.726562 9.039063 1.335938 13.527344 1.855469l1.371094.152343c4.484375.496094 8.886718.894532 13.109375 1.222657l1.320312.105469c4.191407.304687 8.167969.542968 11.839844.71875l1.046875.046874c3.625.167969 6.898438.28125 9.738281.363282h.839844c2.726563.070312 4.984375.101562 6.679687.109375h2.464844c7.863282 0 16.085938-.214844 24.390625-.648438 1.769531-.085937 3.433594-.183593 4.800781-.328125 20.085938-1.285156 49.015626-4.558594 66.839844-12.796875v29.183594c-.136718.195313-.289062.378906-.457031.550781-5.226563 3.769532-11.199219 6.371094-17.519531 7.632813l-.855469.230469c-1.046875.28125-2.128906.570312-3.273437.847656-5.253907 1.273437-11.375 2.480468-18.328126 3.527344l-1.816406.265624c-1.511718.214844-3.078125.425782-4.664062.632813-1.429688.183594-2.886719.359375-4.382813.527344l-2.007812.214843c-4.640625.488282-9.597657.921876-14.910157 1.265626-.738281.078124-1.503906.101562-2.25.152343l-2.765624.160157c-3.722657.183593-7.425782.34375-11.066407.4375h-.136719c-3.933593.132812-7.800781.203124-11.597656.203124-3.601562 0-7.109375-.042968-10.527344-.121093-1.105468 0-2.152343-.082031-3.242187-.113281-2.261719-.070313-4.550781-.136719-6.734375-.238282-1.351562-.066406-2.632812-.152344-3.953125-.226562-1.832031-.101563-3.6875-.199219-5.457031-.328125-1.351563-.09375-2.621094-.214844-3.933594-.320313-1.648438-.132812-3.335938-.261718-4.929688-.414062-1.246093-.113282-2.398437-.257813-3.632812-.382813-1.550781-.167969-3.144531-.328125-4.640625-.503906-1.15625-.144531-2.238281-.304687-3.351563-.449219-1.453124-.191406-2.941406-.382812-4.335937-.59375-1.109375-.160156-2.132813-.34375-3.199219-.511718-1.296875-.207032-2.617187-.40625-3.847656-.628907-1.054688-.1875-2.023438-.386719-3.03125-.578125-1.152344-.214844-2.335938-.441406-3.433594-.664062-.925781-.191406-1.773437-.398438-2.664062-.589844-1.0625-.242188-2.160156-.480469-3.160156-.722656-.796876-.199219-1.542969-.398438-2.3125-.597656-.964844-.257813-1.964844-.503907-2.871094-.800782l-2.03125-.617187c-.839844-.253907-1.695313-.511719-2.472656-.800781-.632813-.214844-1.191407-.421876-1.78125-.636719-.59375-.21875-1.425782-.507813-2.058594-.753907-.632813-.246093-.984375-.414062-1.472656-.625-.488282-.207031-1.183594-.503906-1.703126-.75-.519531-.25-.757812-.394531-1.136718-.59375-.375-.199218-.941406-.496093-1.328125-.734374-.382813-.242188-.566407-.386719-.796875-.578126-.234375-.191406-.664063-.460937-.921875-.6875-.191407-.167968-.371094-.355468-.527344-.558593-.183594-.148438-.355469-.3125-.511719-.488281zm0-226.167969c0-53.019531 42.980469-96 96-96 53.019532 0 96 42.980469 96 96 0 53.019532-42.980468 96-96 96-52.996094-.058593-95.945312-43.007812-96-96zm96 112c18.015625 0 35.761719-4.375 51.710938-12.753906 29.183594 4 40.894531 10.007813 43.777344 12.800782-.074219.070312-.105469.144531-.183594.222656-.082032.082031-.410156.34375-.625.519531s-.59375.472656-.960938.714844c-.367187.238281-.589844.367187-.902344.550781-.433593.246094-.875.496094-1.378906.75l-1.183594.570312c-.550781.253907-1.136718.511719-1.757812.800782-.472656.191406-.976562.390625-1.488281.582031-.671875.257813-1.375.519531-2.113281.800781l-1.792969.601563c-.796875.253906-1.597657.511719-2.476563.796875l-2.074218.601562c-.902344.246094-1.855469.496094-2.824219.742188-.800781.203125-1.597657.402344-2.398438.59375-1.015625.246094-2.074219.480468-3.144531.71875-.878906.191406-1.761719.386718-2.671875.570312-1.128906.230469-2.304687.453125-3.480469.679688l-2.960937.535156c-1.230469.214844-2.527344.421875-3.824219.632812l-3.199219.488282c-1.359375.199218-2.792969.382812-4.214843.574218l-3.410157.441407c-1.480469.175781-3.03125.328125-4.566406.496093-1.207031.128907-2.398437.253907-3.625.375-1.597656.152344-3.328125.28125-5.023437.414063-1.238282.097656-2.449219.210937-3.726563.296875-1.839844.128906-3.761719.234375-5.671875.335938-1.210938.066406-2.402344.144531-3.617188.199218-2.183593.105469-4.464843.167969-6.734374.242188-1.050782 0-2.050782.078125-3.113282.105468-3.351562 0-6.796875 0-10.34375 0s-7.015625-.042968-10.402344-.121093c-1.0625 0-2.0625-.074219-3.109374-.105469-2.273438-.070312-4.554688-.136719-6.738282-.238281-1.238281-.058594-2.398437-.136719-3.613281-.199219-1.914063-.105469-3.832031-.210938-5.671875-.335938-1.28125-.089843-2.496094-.203124-3.738281-.296874-1.6875-.136719-3.390625-.265626-5.015625-.417969-1.238282-.117188-2.398438-.253907-3.625-.375-1.542969-.167969-3.085938-.320313-4.566406-.496094l-3.410157-.441406c-1.421875-.191407-2.855469-.375-4.214843-.574219l-3.199219-.488281c-1.296875-.207031-2.59375-.414063-3.824219-.632813l-2.960938-.535156c-1.175781-.222656-2.351562-.449219-3.480468-.679688-.910156-.183593-1.789063-.375-2.671875-.566406-1.070313-.242187-2.125-.472656-3.144531-.722656-.796876-.191406-1.597657-.390625-2.398438-.589844-.96875-.25-1.917969-.496094-2.824219-.746094l-2.070312-.597656c-.855469-.257812-1.6875-.511718-2.472657-.800781-.625-.199219-1.222656-.398437-1.800781-.601563-.742187-.253906-1.441406-.511718-2.105469-.800781l-1.496093-.589843c-.621094-.265626-1.207031-.519532-1.757813-.800782l-1.183594-.566406c-.503906-.257812-.945312-.503906-1.375-.753906-.3125-.183594-.632812-.367188-.90625-.550782-.273437-.183593-.664062-.480468-.960937-.710937-.292969-.234375-.445313-.355469-.621094-.523437-.175781-.167969-.058593-.0625-.128906-.140626 2.878906-2.753906 14.589844-8.800781 43.777344-12.800781 15.945312 8.394531 33.691406 12.785157 51.710937 12.800781zm0 256c-57.144531 0-91.90625-10.472656-96-16.539062v-29.292969l.160156.070313c1.597657.710937 3.238282 1.382812 4.957032 2.03125l1.289062.472656c1.816406.648438 3.6875 1.265625 5.640625 1.839844h.070313c1.945312.566406 4 1.097656 6.027344 1.601562l1.4375.351563c4.210937.992187 8.585937 1.847656 13.03125 2.589843l1.449218.242188c4.496094.726562 9.039063 1.335938 13.527344 1.855469l1.371094.152343c4.484375.496094 8.886718.894532 13.109375 1.222657l1.320312.105469c4.191407.304687 8.167969.542968 11.839844.71875l1.046875.046874c3.625.167969 6.898438.28125 9.738281.363282h.839844c2.726563.070312 4.984375.101562 6.679687.109375h4.929688c1.695312 0 3.949219 0 6.679688-.109375h.839843c2.839844-.082032 6.109375-.195313 9.734375-.363282l1.046875-.046874c3.671875-.175782 7.648438-.414063 11.839844-.71875l1.320313-.105469c4.226562-.328125 8.625-.726563 13.113281-1.222657l1.367187-.152343c4.488282-.519531 9.03125-1.128907 13.527344-1.855469l1.449219-.242188c4.449219-.742187 8.800781-1.597656 13.03125-2.589843l1.449219-.351563c2.046874-.503906 4.0625-1.023437 6.007812-1.601562h.089844c1.949218-.574219 3.8125-1.191406 5.597656-1.839844l1.289062-.472656c1.71875-.648438 3.390626-1.320313 4.960938-2.03125l.160156-.070313v29.292969c-4.066406 6.066406-38.824218 16.539062-95.96875 16.539062zm320 0h-208v-288h208zm0 0" fill="#231f20"/><path d="m416.035156 208.070312h-176v64h176zm-16 48h-144v-32h144zm0 0" fill="#231f20"/><path d="m288.035156 288.070312h-48v48h48zm-16 32h-16v-16h16zm0 0" fill="#231f20"/><path d="m304.035156 336.070312h48v-48h-48zm16-32h16v16h-16zm0 0" fill="#231f20"/><path d="m368.035156 336.070312h48v-48h-48zm16-32h16v16h-16zm0 0" fill="#231f20"/><path d="m288.035156 352.070312h-48v48h48zm-16 32h-16v-16h16zm0 0" fill="#231f20"/><path d="m304.035156 400.070312h48v-48h-48zm16-32h16v16h-16zm0 0" fill="#231f20"/><path d="m368.035156 464.070312h48v-112h-48zm16-96h16v80h-16zm0 0" fill="#231f20"/><path d="m288.035156 416.070312h-48v48h48zm-16 32h-16v-16h16zm0 0" fill="#231f20"/><path d="m304.035156 464.070312h48v-48h-48zm16-32h16v16h-16zm0 0" fill="#231f20"/><path d="m80.035156 160.070312c-4.417968 0-8-3.582031-8-8h-16c0 13.253907 10.746094 24 24 24h24v16h16v-16h24c13.253906 0 24-10.746093 24-24v-24c0-13.257812-10.746094-24-24-24h-24v-40h24c4.417969 0 8 3.578126 8 8h16c0-13.257812-10.746094-24-24-24h-24v-16h-16v16h-24c-13.253906 0-24 10.742188-24 24v24c0 13.253907 10.746094 24 24 24h24v40zm0-56c-4.417968 0-8-3.582031-8-8v-24c0-4.421874 3.582032-8 8-8h24v40zm40 16h24c4.417969 0 8 3.578126 8 8v24c0 4.417969-3.582031 8-8 8h-24zm0 0" fill="#231f20"/><path d="m32.035156 104.070312h8v16h-8zm0 0" fill="#231f20"/><path d="m184.035156 104.070312h8v16h-8zm0 0" fill="#231f20"/></svg>