<svg id="filled_outline" height="512" viewBox="0 0 512 512" width="512" xmlns="http://www.w3.org/2000/svg" data-name="filled outline"><path d="m488 205.25v154.75a32.004 32.004 0 0 1 -32 32h-160a32.004 32.004 0 0 1 -32-32v-216a32.004 32.004 0 0 1 32-32h98.75a32.06483 32.06483 0 0 1 22.62012 9.37l61.25976 61.26a32.06227 32.06227 0 0 1 9.37012 22.62z" fill="#486be0"/><path d="m296 197.25v202.75a32.004 32.004 0 0 1 -32 32h-208a32.004 32.004 0 0 1 -32-32v-288a32.004 32.004 0 0 1 32-32h122.75a32.06483 32.06483 0 0 1 22.62012 9.37l85.25976 85.26a32.06227 32.06227 0 0 1 9.37012 22.62z" fill="#548aff"/><path d="m293.12012 184h-69.12012a32.004 32.004 0 0 1 -32-32v-69.12a31.82979 31.82979 0 0 1 9.37012 6.49l85.25976 85.26a31.82277 31.82277 0 0 1 6.49024 9.37z" fill="#7dafff"/><path d="m485.12012 192h-45.12012a32.004 32.004 0 0 1 -32-32v-45.12a31.82979 31.82979 0 0 1 9.37012 6.49l61.25976 61.26a31.82277 31.82277 0 0 1 6.49024 9.37z" fill="#7dafff"/><path d="m423.0293 115.71533a39.74137 39.74137 0 0 0 -28.28418-11.71533h-98.74512a40.07141 40.07141 0 0 0 -38.72363 29.96277l-50.24707-50.24744a39.74137 39.74137 0 0 0 -28.28418-11.71533h-122.74512a40.04552 40.04552 0 0 0 -40 40v288a40.04552 40.04552 0 0 0 40 40h208a40.04552 40.04552 0 0 0 40-40h152a40.04552 40.04552 0 0 0 40-40v-154.74512a39.73513 39.73513 0 0 0 -11.71582-28.28418zm-135.0293 284.28467a24.0275 24.0275 0 0 1 -24 24h-208a24.0275 24.0275 0 0 1 -24-24v-288a24.0275 24.0275 0 0 1 24-24h122.74512a24.18915 24.18915 0 0 1 5.25488.58105v63.41895a40.04552 40.04552 0 0 0 40 40h32v-16h-32a24.02718 24.02718 0 0 1 -24-24v-52.68652l80.9707 80.97119a23.83889 23.83889 0 0 1 7.0293 16.97021zm192-40a24.02718 24.02718 0 0 1 -24 24h-152v-186.74512a39.73513 39.73513 0 0 0 -11.71582-28.28418l-20.28418-20.2843v-4.6864a24.02718 24.02718 0 0 1 24-24h98.74512a24.18915 24.18915 0 0 1 5.25488.58105v39.41895a40.04552 40.04552 0 0 0 40 40h8v-16h-8a24.02718 24.02718 0 0 1 -24-24v-28.68646l56.9707 56.97113a23.83889 23.83889 0 0 1 7.0293 16.97021z"/><path d="m104 128h48v16h-48z"/><path d="m72 128h16v16h-16z"/><path d="m336 144h40v16h-40z"/><path d="m304 144h16v16h-16z"/><path d="m120 176h32v16h-32z"/><path d="m232 224h16v16h-16z"/><path d="m152 224h64v16h-64z"/><path d="m72 224h64v16h-64z"/><path d="m408 240h40v16h-40z"/><path d="m328 240h64v16h-64z"/><path d="m368 288h80v16h-80z"/><path d="m328 288h24v16h-24z"/><path d="m416 336h32v16h-32z"/><path d="m328 336h72v16h-72z"/><path d="m104 272h144v16h-144z"/><path d="m72 272h16v16h-16z"/><path d="m160 320h88v16h-88z"/><path d="m72 320h72v16h-72z"/><path d="m200 368h48v16h-48z"/><path d="m72 368h112v16h-112z"/><path d="m72 176h32v16h-32z"/><path d="m328 192h48v16h-48z"/></svg>