<svg id="Layer" enable-background="new 0 0 64 64" height="512" viewBox="0 0 64 64" width="512" xmlns="http://www.w3.org/2000/svg"><path d="m50.5 13c1.93 0 3.5 1.57 3.5 3.5 0 .96-.39 1.84-1.03 2.47-.63.64-1.51 1.03-2.47 1.03h-21c-1.93 0-3.5-1.57-3.5-3.5 0-.96.39-1.84 1.03-2.47.63-.64 1.51-1.03 2.47-1.03z" fill="#4dd0e1"/><path d="m50.5 41c1.93 0 3.5 1.57 3.5 3.5 0 .96-.39 1.84-1.03 2.47-.63.64-1.51 1.03-2.47 1.03h-21c-1.93 0-3.5-1.57-3.5-3.5 0-.96.39-1.84 1.03-2.47.63-.64 1.51-1.03 2.47-1.03z" fill="#4dd0e1"/><g fill="#012e52"><path d="m11 56h7c1.104 0 2-.896 2-2s-.896-2-2-2h-6v-4h5c1.654 0 3-1.346 3-3v-6c0-1.654-1.346-3-3-3h-7c-1.104 0-2 .896-2 2s.896 2 2 2h6v4h-5c-1.654 0-3 1.346-3 3v6c0 1.654 1.346 3 3 3z"/><path d="m10 28h4 4c1.104 0 2-.896 2-2s-.896-2-2-2h-2v-14c0-1.104-.896-2-2-2h-3c-1.104 0-2 .896-2 2s.896 2 2 2h1v12h-2c-1.104 0-2 .896-2 2s.896 2 2 2z"/><path d="m29.5 22h21c1.479 0 2.862-.578 3.872-1.604 1.05-1.033 1.628-2.417 1.628-3.896 0-3.033-2.468-5.5-5.5-5.5h-21c-1.479 0-2.862.578-3.872 1.604-1.05 1.033-1.628 2.417-1.628 3.896 0 3.033 2.468 5.5 5.5 5.5zm-1.045-6.567c.275-.279.647-.433 1.045-.433h21c.827 0 1.5.673 1.5 1.5 0 .399-.153.77-.455 1.067-.275.279-.647.433-1.045.433h-21c-.827 0-1.5-.673-1.5-1.5 0-.399.153-.77.455-1.067z"/><path d="m50.5 39h-21c-1.479 0-2.862.578-3.872 1.604-1.05 1.033-1.628 2.417-1.628 3.896 0 3.033 2.468 5.5 5.5 5.5h21c1.479 0 2.862-.578 3.872-1.604 1.05-1.033 1.628-2.417 1.628-3.896 0-3.033-2.468-5.5-5.5-5.5zm1.045 6.567c-.275.279-.647.433-1.045.433h-21c-.827 0-1.5-.673-1.5-1.5 0-.399.153-.77.455-1.067.275-.279.647-.433 1.045-.433h21c.827 0 1.5.673 1.5 1.5 0 .399-.153.77-.455 1.067z"/></g></svg>