<svg height="512" viewBox="0 0 74 74" width="512" xmlns="http://www.w3.org/2000/svg"><g id="line_color" data-name="line color"><circle cx="21.972" cy="21.985" fill="#fcd462" r="18.972"/><g fill="#323c6b"><path d="m21.972 41.457a19.472 19.472 0 1 1 19.471-19.472 19.494 19.494 0 0 1 -19.471 19.472zm0-37.944a18.472 18.472 0 1 0 18.471 18.472 18.492 18.492 0 0 0 -18.471-18.472z"/><path d="m21.972 29.491a4.008 4.008 0 0 1 -4-4 .5.5 0 0 1 1 0 3 3 0 1 0 3-3 4 4 0 1 1 4-4 .5.5 0 0 1 -1 0 3 3 0 1 0 -3 3 4 4 0 0 1 0 8.006z"/><path d="m21.972 15.479a.5.5 0 0 1 -.5-.5v-.918a.5.5 0 0 1 1 0v.918a.5.5 0 0 1 -.5.5z"/><path d="m21.972 30.409a.5.5 0 0 1 -.5-.5v-.918a.5.5 0 0 1 1 0v.918a.5.5 0 0 1 -.5.5z"/></g><circle cx="52.028" cy="52.015" fill="#fcd462" r="18.972"/><path d="m52.028 71.487a19.472 19.472 0 1 1 19.472-19.472 19.494 19.494 0 0 1 -19.472 19.472zm0-37.944a18.472 18.472 0 1 0 18.472 18.472 18.493 18.493 0 0 0 -18.472-18.472z" fill="#323c6b"/><circle cx="52.028" cy="52.015" fill="#fcd462" r="14.427"/><path d="m32.49 31.84a14.428 14.428 0 0 0 -22.83-17.38 14.423 14.423 0 1 1 22.83 17.38z" fill="#f7be56"/><path d="m62.52 61.92a14.424 14.424 0 0 0 -22.82-17.4 14.427 14.427 0 1 1 22.82 17.4z" fill="#f7be56"/><g fill="#323c6b"><path d="m53.535 58.96c-3.277 0-5.943-3.115-5.943-6.945s2.666-6.945 5.943-6.945a5.3 5.3 0 0 1 2.941.912.5.5 0 1 1 -.555.832 4.306 4.306 0 0 0 -2.387-.744c-2.726 0-4.943 2.667-4.943 5.945s2.218 5.945 4.943 5.945a4.307 4.307 0 0 0 2.387-.744.5.5 0 1 1 .555.832 5.3 5.3 0 0 1 -2.941.912z"/><path d="m50.511 51.349h-4.379a.5.5 0 0 1 0-1h4.379a.5.5 0 0 1 0 1z"/><path d="m50 54.676h-3.353a.5.5 0 0 1 0-1h3.353a.5.5 0 0 1 0 1z"/><path d="m27.949 67.815h-18.5a.5.5 0 0 1 -.5-.5v-17.415a.5.5 0 0 1 1 0v16.915h18a.5.5 0 0 1 0 1z"/><path d="m5.725 54.632a.5.5 0 0 1 -.375-.83l3.725-4.235a.5.5 0 0 1 .375-.17.5.5 0 0 1 .376.17l3.722 4.233a.5.5 0 1 1 -.751.66l-3.348-3.806-3.349 3.808a.5.5 0 0 1 -.375.17z"/><path d="m64.551 24.6a.5.5 0 0 1 -.5-.5v-16.915h-18a.5.5 0 0 1 0-1h18.5a.5.5 0 0 1 .5.5v17.415a.5.5 0 0 1 -.5.5z"/><path d="m64.551 24.6a.5.5 0 0 1 -.376-.17l-3.723-4.23a.5.5 0 1 1 .751-.66l3.348 3.808 3.35-3.808a.5.5 0 1 1 .75.66l-3.725 4.235a.5.5 0 0 1 -.375.165z"/><path d="m1.646 14.188a.5.5 0 0 1 -.19-.038.5.5 0 0 1 -.272-.652q.24-.584.511-1.151a.5.5 0 0 1 .9.432q-.259.541-.487 1.1a.5.5 0 0 1 -.462.309z"/><path d="m3.625 10.438a.5.5 0 0 1 -.417-.775 22.686 22.686 0 0 1 8.455-7.633.5.5 0 0 1 .461.888 21.691 21.691 0 0 0 -8.082 7.3.5.5 0 0 1 -.417.22z"/><path d="m70.744 63.958a.5.5 0 0 1 -.262-.074.5.5 0 0 1 -.164-.688c.2-.319.378-.648.559-.978a.5.5 0 1 1 .877.48c-.188.344-.379.688-.584 1.022a.5.5 0 0 1 -.426.238z"/><path d="m61.609 72.277a.5.5 0 0 1 -.22-.949 21.812 21.812 0 0 0 7.23-5.728.5.5 0 0 1 .773.635 22.836 22.836 0 0 1 -7.563 5.992.5.5 0 0 1 -.22.05z"/></g><circle cx="21.972" cy="21.985" fill="none" r="14.427"/><path d="m21.972 36.912a14.927 14.927 0 1 1 14.928-14.927 14.944 14.944 0 0 1 -14.928 14.927zm0-28.854a13.927 13.927 0 1 0 13.928 13.927 13.942 13.942 0 0 0 -13.928-13.927z" fill="#323c6b"/><path d="m52.028 66.942a14.927 14.927 0 1 1 14.927-14.927 14.944 14.944 0 0 1 -14.927 14.927zm0-28.854a13.927 13.927 0 1 0 13.927 13.927 13.942 13.942 0 0 0 -13.927-13.927z" fill="#323c6b"/><path d="m18.938 33.056a.654.654 0 0 1 -.182-.026 11.452 11.452 0 0 1 -7.817-7.783.65.65 0 1 1 1.246-.368 10.3 10.3 0 0 0 6.935 6.9.65.65 0 0 1 -.182 1.274z" fill="#fff"/><path d="m11.111 22.712a.593.593 0 0 1 -.642-.573l-.008-.154c0-.122.008-.241.016-.36l.01-.156a.665.665 0 0 1 .681-.618.65.65 0 0 1 .618.681l-.011.181c-.007.09-.013.181-.013.273a.706.706 0 0 1 -.634.727z" fill="#fff"/></g></svg>