<svg id="filled_outline" height="512" viewBox="0 0 512 512" width="512" xmlns="http://www.w3.org/2000/svg" data-name="filled outline"><rect fill="#bdd1f2" height="256" rx="32" width="368" x="120" y="160"/><path d="m392 208h96v80h-96z" fill="#a1b8e3"/><rect fill="#e0edff" height="256" rx="32" width="368" x="24" y="88"/><path d="m56 120h64v64h-64z" fill="#ffc431"/><circle cx="288" cy="280" fill="#ffc431" r="16"/><g fill="#b9cd2a"><circle cx="320" cy="280" r="16"/><path d="m80 88v-.00006a63.99994 63.99994 0 0 1 63.99994-63.99994h224.00006a88 88 0 0 1 88 88v56h32l-64 72-64-72h32v-48a32 32 0 0 0 -32-32z"/><path d="m119.998 384.002-.003-56.002h32.00051l-64.001-72-64.001 72h32.00042v64a88 88 0 0 0 88 88h224.00507a64.00046 64.00046 0 0 0 64.001-63.99994l-280.002-.00006a32 32 0 0 1 -32-31.998z"/></g><path d="m400 304v-56h-16v56a24.0275 24.0275 0 0 1 -24 24h-184v16h184a40.04584 40.04584 0 0 0 40-40z"/><path d="m128 120a8.00039 8.00039 0 0 0 -8-8h-64a8.00039 8.00039 0 0 0 -8 8v64a8.00039 8.00039 0 0 0 8 8h64a8.00039 8.00039 0 0 0 8-8zm-64 56v-48h48v16h-24v16h24v16z"/><path d="m288 112h32v16h-32z"/><path d="m336 112h32v16h-32z"/><path d="m80 224h48v16h-48z"/><path d="m152 224h48v16h-48z"/><path d="m224 224h48v16h-48z"/><path d="m296 224h48v16h-48z"/><path d="m264 280a23.98433 23.98433 0 0 0 40 17.86914 24 24 0 1 0 0-35.73828 23.98433 23.98433 0 0 0 -40 17.86914zm56-8a8 8 0 1 1 -8 8 8.00917 8.00917 0 0 1 8-8zm-24 8a8 8 0 1 1 -8-8 8.00917 8.00917 0 0 1 8 8z"/><path d="m168 368h16v16h-16z"/><path d="m200 368h48v16h-48z"/><path d="m160 296h16v16h-16z"/><path d="m192 296h16v16h-16z"/><path d="m224 296h16v16h-16z"/><path d="m264 368h56v16h-56z"/><path d="m424 248a8.0011 8.0011 0 0 0 5.97949-2.68555l64-72a7.9999 7.9999 0 0 0 -5.97949-13.31445h-24v-48a96.10874 96.10874 0 0 0 -96-96h-224a72.095 72.095 0 0 0 -71.54492 64h-16.45508a40.04584 40.04584 0 0 0 -40 40v168h16v-168a24.0275 24.0275 0 0 1 24-24h304a24.0275 24.0275 0 0 1 24 24v40h-24a7.9999 7.9999 0 0 0 -5.97949 13.31445l64 72a8.0011 8.0011 0 0 0 5.97949 2.68555zm-32-72a8.00039 8.00039 0 0 0 8-8v-48a40.04584 40.04584 0 0 0 -40-40h-271.41943a56.07868 56.07868 0 0 1 55.41943-48h224a80.09041 80.09041 0 0 1 80 80v56a8.00039 8.00039 0 0 0 8 8h14.18555l-46.18555 51.958-46.18555-51.958z"/><path d="m23.99316 344h24.001v48a96.10895 96.10895 0 0 0 96.001 96h224.00384a72.09608 72.09608 0 0 0 71.5459-64h16.4551a40.04584 40.04584 0 0 0 40-40v-176h-16v72h-64v16h64v88a24.0275 24.0275 0 0 1 -24 24h-304a24.0275 24.0275 0 0 1 -24-24l-.00488-40h24a7.9999 7.9999 0 0 0 5.97949-13.31445l-64.001-72a7.99957 7.99957 0 0 0 -11.959 0l-64.001 72a7.9999 7.9999 0 0 0 5.97955 13.31445zm64.001-67.959 46.1865 51.959h-14.18554a8.00039 8.00039 0 0 0 -8 8l.00488 48a40.04584 40.04584 0 0 0 40 40h271.41943a56.07986 56.07986 0 0 1 -55.42043 48h-224.00388a80.09124 80.09124 0 0 1 -80.001-80v-56a8.00039 8.00039 0 0 0 -8-8h-14.1865z"/></svg>